<svg id="heart" xmlns="http://www.w3.org/2000/svg" width="28" height="28" viewBox="0 0 28 28">
  <path id="Path_169" data-name="Path 169" d="M0,0H28V28H0Z" fill="none"/>
  <path id="Path_170" data-name="Path 170" d="M19.273,3a7.1,7.1,0,0,0-5.361,2.517A7.1,7.1,0,0,0,8.552,3,6.524,6.524,0,0,0,2,9.625c0,4.553,4.05,8.263,10.185,13.9L13.912,25.1l1.727-1.59c6.135-5.625,10.185-9.335,10.185-13.888A6.524,6.524,0,0,0,19.273,3ZM14.031,21.73l-.119.12-.119-.12c-5.67-5.191-9.411-8.624-9.411-12.1A4.094,4.094,0,0,1,8.552,5.409,4.656,4.656,0,0,1,12.8,8.252h2.228a4.627,4.627,0,0,1,4.241-2.843,4.094,4.094,0,0,1,4.169,4.216C23.442,13.106,19.7,16.538,14.031,21.73Z" transform="translate(0.088 0.132)" fill="#687083"/>
</svg>
