<svg id="lock" xmlns="http://www.w3.org/2000/svg" width="20" height="20" viewBox="0 0 20 20">
  <path id="Path_196" data-name="Path 196" d="M0,0H20V20H0Z" fill="none"/>
  <path id="Path_197" data-name="Path 197" d="M15.667,6.833h-.833V5.167a4.167,4.167,0,0,0-8.333,0V6.833H5.667A1.672,1.672,0,0,0,4,8.5v8.333A1.672,1.672,0,0,0,5.667,18.5h10a1.672,1.672,0,0,0,1.667-1.667V8.5A1.672,1.672,0,0,0,15.667,6.833Zm-5,7.5a1.667,1.667,0,1,1,1.667-1.667A1.672,1.672,0,0,1,10.667,14.333Zm2.583-7.5H8.083V5.167a2.583,2.583,0,0,1,5.167,0Z" transform="translate(-0.667 -0.167)" fill="#687083"/>
</svg>
