<svg id="notify" xmlns="http://www.w3.org/2000/svg" width="30" height="30" viewBox="0 0 30 30">
  <path id="Path_176" data-name="Path 176" d="M0,0H30V30H0Z" fill="none"/>
  <path id="Path_177" data-name="Path 177" d="M14.828,27.806a2.661,2.661,0,0,0,2.707-2.6H12.121A2.661,2.661,0,0,0,14.828,27.806Zm8.121-7.786V13.531c0-3.984-2.206-7.319-6.091-8.2V4.447a2.032,2.032,0,0,0-4.06,0v.882c-3.871.882-6.091,4.2-6.091,8.2V20.02L4,22.615v1.3H25.655v-1.3Zm-2.707,1.3H9.414V13.531c0-3.218,2.044-5.84,5.414-5.84s5.414,2.621,5.414,5.84Z" transform="translate(0.172 0.108)" fill="#687083"/>
</svg>
