<svg id="unclok" xmlns="http://www.w3.org/2000/svg" width="20.025" height="20.025" viewBox="0 0 20.025 20.025">
  <path id="Path_194" data-name="Path 194" d="M0,0H20.025V20.025H0Z" fill="none"/>
  <path id="Path_195" data-name="Path 195" d="M10.675,14.35a1.669,1.669,0,1,0-1.669-1.669A1.674,1.674,0,0,0,10.675,14.35Zm5.006-7.51h-.834V5.172a4.172,4.172,0,1,0-8.344,0H8.089a2.587,2.587,0,0,1,5.173,0V6.841H5.669A1.674,1.674,0,0,0,4,8.51v8.344a1.674,1.674,0,0,0,1.669,1.669H15.681a1.674,1.674,0,0,0,1.669-1.669V8.51A1.674,1.674,0,0,0,15.681,6.841Zm0,10.013H5.669V8.51H15.681Z" transform="translate(-0.662 -0.166)" fill="#687083"/>
</svg>
