<svg id="attach_money-24px" xmlns="http://www.w3.org/2000/svg" width="45.092" height="45.092" viewBox="0 0 45.092 45.092">
  <path id="Path_2800" data-name="Path 2800" d="M0,0H45.092V45.092H0Z" fill="none"/>
  <path id="Path_2801" data-name="Path 2801" d="M16.616,17.843c-4.265-1.109-5.637-2.255-5.637-4.04,0-2.048,1.9-3.476,5.073-3.476,3.344,0,4.584,1.6,4.7,3.946H24.9a7.49,7.49,0,0,0-6.031-7.158V3H13.234V7.058c-3.645.789-6.576,3.156-6.576,6.783,0,4.34,3.589,6.5,8.831,7.76,4.7,1.127,5.637,2.781,5.637,4.528,0,1.3-.921,3.363-5.073,3.363-3.87,0-5.392-1.729-5.6-3.946H6.32c.225,4.115,3.307,6.426,6.914,7.2v4.077h5.637V32.78c3.664-.7,6.576-2.818,6.576-6.67C25.447,20.774,20.881,18.951,16.616,17.843Z" transform="translate(5.554 2.637)" fill="#e63e45"/>
</svg>