<svg id="local_library-24px" xmlns="http://www.w3.org/2000/svg" width="45.092" height="45.092" viewBox="0 0 45.092 45.092">
  <path id="Path_2804" data-name="Path 2804" d="M0,0H45.092V45.092H0Z" fill="none"/>
  <path id="Path_2805" data-name="Path 2805" d="M19.91,16.031a7.515,7.515,0,1,0-7.515-7.515A7.513,7.513,0,0,0,19.91,16.031Zm0-11.273a3.758,3.758,0,1,1-3.758,3.758A3.769,3.769,0,0,1,19.91,4.758Zm0,16.064A24.712,24.712,0,0,0,3,14.152V34.819a24.712,24.712,0,0,1,16.91,6.67,24.8,24.8,0,0,1,16.91-6.67V14.152A24.712,24.712,0,0,0,19.91,20.822ZM33.062,31.306A28.611,28.611,0,0,0,19.91,36.6,28.557,28.557,0,0,0,6.758,31.287V18.229a21,21,0,0,1,10.6,5.317l2.555,2.4,2.555-2.386a21,21,0,0,1,10.6-5.317Z" transform="translate(2.637 0.879)" fill="#e63e45"/>
</svg>