<svg xmlns="http://www.w3.org/2000/svg" width="35.698" height="31.001" viewBox="0 0 35.698 31.001">
  <path id="Path_2803" data-name="Path 2803" d="M18.031,19.031a7.515,7.515,0,1,0-7.515-7.515A7.513,7.513,0,0,0,18.031,19.031Zm0-11.273a3.758,3.758,0,1,1-3.758,3.758A3.769,3.769,0,0,1,18.031,7.758ZM6.758,30.3c.376-1.184,4.829-3.156,9.319-3.645L19.91,22.9a17.55,17.55,0,0,0-1.879-.113C13.014,22.789,3,25.306,3,30.3v3.758H19.91L16.152,30.3ZM36.068,19.97l-9.638,9.714L22.54,25.776l-2.63,2.649L26.429,35,38.7,22.619Z" transform="translate(-3 -4)" fill="#e63e45"/>
</svg>